<?xml version="1.0" encoding="utf-8"?>
<!-- Generator: Adobe Illustrator 22.0.1, SVG Export Plug-In . SVG Version: 6.00 Build 0)  -->
<svg version="1.1" id="圖層_1" xmlns="http://www.w3.org/2000/svg" xmlns:xlink="http://www.w3.org/1999/xlink" x="0px" y="0px"
	 viewBox="0 0 180 48" style="enable-background:new 0 0 180 48;" xml:space="preserve">
<style type="text/css">
	.st0{fill:#FFFFFF;}
</style>
<g>
	<path class="st0" d="M22.8,41.4C11.8,44,3,38.4,4.3,27.6c1.3-10.8,11.3-17.5,11.3-17.5s-6.5,1.8-12,11C-1.9,30.4,0.2,39,4.5,43
		c4.4,4.2,16.2,8.3,27.3,0.3c10.7-7.7,13.5-18.6,13.5-18.6S38.3,37.8,22.8,41.4z"/>
	<path class="st0" d="M35.1,3.5c10.9,3.1,4.4,12.5,0,15.6c-0.6,0.4-1.2,0.8-1.7,1.2L21.3,9l-9.9,26.8c0,0,17-0.4,29.7-12.5
		c13-12.5,4-19.8-0.8-21.8C32.8-1.6,18.4,0.9,13,5.9C13,5.9,24.2,0.4,35.1,3.5z M19.9,27l3-8.7l5.6,5.3C26.5,24.7,23.9,25.8,19.9,27
		z"/>
	<g>
		<path class="st0" d="M59.7,5.9l6.2,13.3h-2.2l-2-4.3H56l-2.1,4.3h-1.1l6.3-13.3C59.1,5.9,59.7,5.9,59.7,5.9z M56.4,13.9h4.8
			l-2.4-5.1L56.4,13.9z M67.3,9.1l3.2,7.3l3.2-7.3l3.2,7.3l2.8-7.3h1l-4.1,10.1h-0.7L73,12.7l-2.8,6.5h-0.6L65.1,9.1H67.3z
			 M86.1,19.3c-0.7,0-1.3-0.1-1.9-0.4c-0.6-0.2-1.1-0.6-1.6-1c-0.5-0.4-0.8-1-1.1-1.5c-0.3-0.6-0.4-1.2-0.4-1.9
			c0-0.8,0.1-1.5,0.3-2.2c0.2-0.7,0.6-1.3,1-1.8c0.4-0.5,1-0.9,1.6-1.2c0.6-0.3,1.3-0.4,2-0.4c0.7,0,1.3,0.1,1.8,0.3
			c0.6,0.2,1,0.6,1.4,0.9c0.4,0.4,0.7,0.8,0.9,1.4c0.2,0.5,0.3,1,0.3,1.6h-7.5c0,0.7,0.1,1.3,0.2,1.9c0.2,0.6,0.4,1.1,0.7,1.5
			c0.3,0.4,0.7,0.7,1.1,1c0.4,0.2,0.9,0.4,1.4,0.4c0.4,0,0.9-0.1,1.3-0.2c0.4-0.1,0.7-0.3,1.1-0.6c0.3-0.2,0.6-0.5,0.8-0.8
			c0.2-0.3,0.4-0.6,0.5-0.9l0.6,0.2c-0.2,0.5-0.4,1-0.7,1.4c-0.3,0.5-0.7,0.9-1.1,1.2c-0.4,0.3-0.9,0.6-1.4,0.8
			C87.2,19.3,86.6,19.3,86.1,19.3L86.1,19.3z M88.1,12.4c0-0.4-0.1-0.7-0.2-1c-0.1-0.3-0.3-0.6-0.6-0.9c-0.2-0.2-0.5-0.4-0.8-0.6
			c-0.3-0.1-0.7-0.2-1-0.2c-0.3,0-0.6,0.1-0.9,0.2c-0.3,0.1-0.5,0.3-0.7,0.6c-0.2,0.3-0.4,0.5-0.5,0.9c-0.2,0.3-0.2,0.7-0.2,1
			L88.1,12.4L88.1,12.4z M96,18.7c0.3,0,0.5,0,0.7-0.1c0.2-0.1,0.4-0.2,0.6-0.3c0.2-0.2,0.3-0.3,0.4-0.5c0.1-0.2,0.2-0.4,0.2-0.6
			c0-0.3-0.1-0.6-0.2-0.8c-0.2-0.2-0.4-0.4-0.6-0.6c-0.2-0.2-0.6-0.3-0.9-0.5c-0.3-0.2-0.7-0.3-1-0.5c-0.3-0.2-0.6-0.3-1-0.5
			c-0.3-0.2-0.6-0.4-0.9-0.6c-0.2-0.2-0.5-0.5-0.6-0.8c-0.2-0.3-0.2-0.7-0.2-1.1c0-0.4,0.1-0.8,0.2-1.1c0.2-0.3,0.4-0.6,0.7-0.9
			c0.3-0.2,0.7-0.4,1.1-0.6C95,9,95.4,8.9,96,8.9c0.3,0,0.7,0,0.9,0.1c0.3,0.1,0.6,0.1,0.9,0.3c0.3,0.1,0.6,0.3,0.8,0.6
			c0.3,0.2,0.6,0.6,0.9,1l-0.7,0.6c-0.4-0.6-0.8-1.1-1.3-1.4c-0.4-0.3-1-0.5-1.5-0.5c-0.3,0-0.6,0-0.8,0.1c-0.2,0.1-0.4,0.1-0.6,0.3
			c-0.2,0.1-0.3,0.3-0.4,0.4C94,10.5,94,10.7,94,10.9c0,0.3,0.1,0.6,0.2,0.8c0.2,0.2,0.4,0.4,0.7,0.6c0.3,0.2,0.6,0.3,0.9,0.5
			c0.3,0.2,0.7,0.3,1.1,0.5c0.4,0.2,0.7,0.3,1.1,0.5c0.3,0.2,0.7,0.4,0.9,0.6c0.3,0.2,0.5,0.5,0.7,0.8c0.2,0.3,0.2,0.7,0.2,1.1
			c0,0.4-0.1,0.8-0.2,1.2c-0.2,0.4-0.4,0.7-0.7,1c-0.3,0.3-0.7,0.5-1.2,0.6c-0.6,0.2-1.1,0.3-1.7,0.2c-0.3,0-0.6,0-0.9-0.1
			c-0.3-0.1-0.6-0.1-0.9-0.3c-0.3-0.1-0.7-0.3-1-0.6c-0.3-0.3-0.7-0.6-0.9-1l0.8-0.7c0.2,0.3,0.5,0.6,0.7,0.9
			c0.2,0.2,0.5,0.4,0.7,0.6c0.2,0.2,0.5,0.3,0.7,0.3C95.5,18.6,95.7,18.7,96,18.7L96,18.7z M106.8,19.3c-0.8,0-1.5-0.1-2.1-0.4
			c-0.6-0.3-1.2-0.6-1.7-1.1c-0.5-0.5-0.8-1-1.1-1.6c-0.3-0.6-0.4-1.3-0.4-2c0-0.7,0.1-1.4,0.4-2.1c0.3-0.6,0.6-1.2,1.1-1.7
			c0.5-0.5,1.1-0.9,1.7-1.1c0.7-0.3,1.4-0.4,2.1-0.4s1.5,0.1,2.1,0.4c0.6,0.2,1.2,0.6,1.7,1c0.5,0.4,0.8,1,1.1,1.6
			c0.3,0.6,0.4,1.2,0.4,1.9c0,0.8-0.1,1.5-0.4,2.1c-0.3,0.6-0.6,1.2-1.1,1.7c-0.5,0.5-1.1,0.9-1.7,1.2
			C108.3,19.2,107.6,19.3,106.8,19.3z M107.2,18.6c0.4,0,0.8-0.1,1.1-0.3c0.3-0.2,0.6-0.5,0.8-0.8c0.2-0.3,0.4-0.7,0.6-1.2
			c0.1-0.5,0.2-0.9,0.2-1.4c0-0.7-0.1-1.4-0.2-2c-0.1-0.6-0.3-1.1-0.6-1.7c-0.3-0.5-0.7-0.8-1.1-1.1c-0.5-0.3-1-0.4-1.7-0.4
			c-0.3,0-0.6,0.1-1,0.3c-0.3,0.2-0.6,0.5-0.8,0.8c-0.2,0.3-0.4,0.7-0.6,1.2c-0.2,0.5-0.2,0.9-0.2,1.4c0,0.7,0.1,1.4,0.2,2.1
			c0.2,0.6,0.4,1.2,0.7,1.7c0.3,0.5,0.7,0.9,1.1,1.1C106.1,18.5,106.6,18.6,107.2,18.6L107.2,18.6z M114,9.1h2V11
			c0.2-0.3,0.6-0.6,0.9-0.8c0.3-0.2,0.7-0.5,1-0.7c0.3-0.2,0.7-0.3,1-0.5c0.3-0.1,0.7-0.2,1-0.2c0.3,0,0.6,0.1,0.9,0.2
			c0.3,0.1,0.6,0.2,0.8,0.4c0.2,0.2,0.5,0.4,0.7,0.7c0.2,0.2,0.3,0.5,0.4,0.8c0.2-0.3,0.4-0.6,0.7-0.8c0.3-0.2,0.6-0.5,1-0.7
			c0.4-0.2,0.7-0.3,1.1-0.5c0.4-0.1,0.8-0.2,1.2-0.2c0.4,0,0.7,0.1,1.1,0.2c0.3,0.2,0.6,0.4,0.9,0.7c0.2,0.3,0.5,0.6,0.6,1
			c0.2,0.4,0.2,0.8,0.2,1.2V19h-2v-6.8c0-0.3-0.1-0.5-0.2-0.8c-0.1-0.2-0.2-0.5-0.4-0.6c-0.2-0.2-0.4-0.3-0.6-0.5
			c-0.2-0.1-0.4-0.2-0.7-0.2c-0.3,0-0.6,0-0.8,0.1c-0.3,0.1-0.5,0.2-0.8,0.3c-0.3,0.1-0.5,0.3-0.7,0.5c-0.2,0.2-0.4,0.3-0.5,0.6V19
			h-2v-6.8c0-0.3-0.1-0.5-0.2-0.8c-0.1-0.2-0.2-0.5-0.4-0.6c-0.2-0.2-0.4-0.3-0.6-0.5c-0.2-0.1-0.5-0.2-0.7-0.2
			c-0.2,0-0.5,0-0.8,0.1c-0.3,0.1-0.5,0.2-0.8,0.3c-0.3,0.1-0.5,0.3-0.7,0.5c-0.2,0.2-0.4,0.3-0.6,0.6v7.4H114V9.1z M136.1,19.3
			c-0.7,0-1.3-0.1-1.9-0.4c-0.6-0.2-1.1-0.6-1.6-1c-0.5-0.4-0.8-1-1.1-1.5c-0.3-0.6-0.4-1.2-0.4-1.9c0-0.8,0.1-1.5,0.3-2.2
			c0.2-0.7,0.6-1.3,1-1.8c0.4-0.5,1-0.9,1.6-1.2c0.6-0.3,1.3-0.4,2-0.4c0.6,0,1.3,0.1,1.8,0.3c0.6,0.2,1,0.6,1.4,0.9
			c0.4,0.4,0.7,0.8,0.9,1.4c0.2,0.5,0.3,1,0.3,1.6h-7.5c0,0.7,0.1,1.3,0.2,1.9c0.2,0.6,0.4,1.1,0.7,1.5c0.3,0.4,0.7,0.7,1.1,1
			c0.4,0.2,0.9,0.4,1.4,0.4c0.4,0,0.9-0.1,1.3-0.2c0.4-0.1,0.7-0.3,1.1-0.6c0.3-0.2,0.6-0.5,0.8-0.8c0.2-0.3,0.4-0.6,0.5-0.9
			l0.6,0.2c-0.2,0.5-0.4,1-0.7,1.4c-0.3,0.5-0.7,0.9-1.1,1.2c-0.4,0.3-0.9,0.6-1.4,0.8C137.2,19.2,136.7,19.4,136.1,19.3L136.1,19.3
			z M138.2,12.4c0-0.4-0.1-0.7-0.2-1c-0.1-0.3-0.3-0.6-0.6-0.9c-0.2-0.2-0.5-0.4-0.8-0.6c-0.3-0.1-0.7-0.2-1-0.2
			c-0.3,0-0.6,0.1-0.9,0.2c-0.3,0.1-0.5,0.3-0.7,0.6c-0.2,0.3-0.4,0.5-0.5,0.9c-0.2,0.3-0.2,0.7-0.2,1L138.2,12.4L138.2,12.4z"/>
		<g>
			<path class="st0" d="M63.5,27.7v0.8h-6.9v4.6h4.6V34h-4.6v5.8h6.9v0.8h-9.1v-13L63.5,27.7L63.5,27.7z M65.5,30.6h2v1.8
				c0.6-0.7,1.2-1.2,1.9-1.5c0.6-0.3,1.3-0.5,2-0.5c0.3,0,0.7,0.1,1,0.2c0.3,0.2,0.6,0.4,0.8,0.6c0.2,0.3,0.4,0.6,0.6,1
				c0.1,0.4,0.2,0.8,0.2,1.2v7.2h-2v-6.8c0-0.7-0.2-1.2-0.4-1.5c-0.3-0.3-0.7-0.5-1.1-0.5c-0.2,0-0.4,0-0.7,0.1
				c-0.2,0.1-0.5,0.2-0.7,0.3c-0.3,0.1-0.5,0.3-0.7,0.5c-0.2,0.2-0.5,0.4-0.7,0.6v7.4h-2C65.5,40.6,65.5,30.6,65.5,30.6z M81.6,39.4
				c-0.3,0.5-0.6,0.8-1.1,1.1c-0.4,0.3-1,0.4-1.6,0.4c-0.3,0-0.6-0.1-0.9-0.2c-0.2-0.1-0.5-0.3-0.6-0.5c-0.2-0.2-0.3-0.5-0.4-0.7
				c-0.1-0.3-0.1-0.6-0.1-1v-7.1h-1.7V31c0.6,0,1-0.1,1.4-0.3s0.7-0.5,0.9-0.8c0.2-0.3,0.4-0.7,0.6-1.2c0.1-0.5,0.2-1,0.3-1.4H79
				v3.4h2.3v0.8H79v7.1c0,0.3,0.1,0.6,0.3,0.8c0.2,0.2,0.5,0.3,0.8,0.3c0.2,0,0.4-0.1,0.6-0.2c0.2-0.1,0.3-0.2,0.5-0.4L81.6,39.4
				L81.6,39.4z M87.3,40.9c-0.7,0-1.3-0.1-1.9-0.4c-0.6-0.2-1.1-0.6-1.6-1c-0.5-0.4-0.8-1-1.1-1.5c-0.3-0.6-0.4-1.2-0.4-1.9
				c0-0.8,0.1-1.5,0.3-2.2c0.2-0.7,0.6-1.3,1-1.8c0.4-0.5,1-0.9,1.6-1.2c0.6-0.3,1.3-0.4,2-0.4c0.7,0,1.3,0.1,1.8,0.3
				c0.6,0.2,1,0.6,1.4,0.9c0.4,0.4,0.7,0.8,0.9,1.4c0.2,0.5,0.3,1,0.3,1.6h-7.5c0,0.7,0.1,1.3,0.2,1.9c0.2,0.6,0.4,1.1,0.7,1.5
				c0.3,0.4,0.7,0.7,1.1,1c0.4,0.2,0.9,0.4,1.4,0.4c0.4,0,0.9-0.1,1.3-0.2c0.4-0.1,0.7-0.3,1.1-0.6c0.3-0.2,0.6-0.5,0.8-0.8
				c0.2-0.3,0.4-0.6,0.5-0.9l0.6,0.2c-0.2,0.5-0.4,1-0.7,1.4c-0.3,0.5-0.7,0.9-1.1,1.2c-0.4,0.3-0.9,0.6-1.4,0.8
				C88.4,40.7,87.8,40.9,87.3,40.9z M89.3,33.9c0-0.4-0.1-0.7-0.2-1c-0.1-0.3-0.3-0.6-0.6-0.9c-0.2-0.2-0.5-0.4-0.8-0.6
				c-0.3-0.1-0.7-0.2-1-0.2c-0.3,0-0.6,0.1-0.9,0.2c-0.3,0.1-0.5,0.3-0.7,0.6c-0.2,0.3-0.4,0.5-0.5,0.9c-0.2,0.3-0.2,0.7-0.2,1H89.3
				L89.3,33.9z M93.9,30.6h2v1.9c0.2-0.3,0.4-0.6,0.6-0.8c0.2-0.2,0.5-0.5,0.7-0.7c0.2-0.2,0.5-0.3,0.7-0.5c0.2-0.1,0.5-0.2,0.8-0.2
				c0.2,0,0.4,0,0.6,0.1c0.2,0.1,0.3,0.2,0.5,0.3c0.2,0.1,0.2,0.2,0.3,0.4c0.1,0.1,0.1,0.3,0.1,0.5c0,0.3-0.1,0.6-0.3,0.7
				c-0.2,0.2-0.5,0.3-0.8,0.2c-0.2,0-0.4,0-0.5-0.1c-0.1-0.1-0.2-0.1-0.4-0.2c-0.1-0.1-0.2-0.1-0.3-0.2c-0.1-0.1-0.2-0.1-0.4-0.1
				c-0.3,0-0.5,0.2-0.8,0.4c-0.3,0.3-0.6,0.7-0.8,1.1v6.9h-2L93.9,30.6C93.9,30.6,93.9,30.6,93.9,30.6z M107.2,39.4
				c-0.3,0.5-0.6,0.8-1.1,1.1c-0.4,0.3-1,0.4-1.6,0.4c-0.3,0-0.6-0.1-0.9-0.2c-0.2-0.1-0.5-0.3-0.6-0.5c-0.2-0.2-0.3-0.5-0.4-0.7
				c-0.1-0.3-0.1-0.6-0.1-1v-7.1h-1.7V31c0.6,0,1-0.1,1.4-0.3c0.4-0.2,0.6-0.5,0.9-0.8c0.2-0.3,0.4-0.7,0.6-1.2
				c0.1-0.5,0.2-1,0.3-1.4h0.6v3.4h2.3v0.8h-2.3v7.1c0,0.3,0.1,0.6,0.3,0.8c0.2,0.2,0.5,0.3,0.8,0.3c0.2,0,0.4-0.1,0.6-0.2
				c0.2-0.1,0.3-0.2,0.5-0.4L107.2,39.4L107.2,39.4z M115.8,40.6h-2v-1.4c-0.2,0.2-0.5,0.4-0.7,0.6c-0.2,0.2-0.5,0.4-0.7,0.5
				c-0.3,0.2-0.6,0.3-0.9,0.4c-0.4,0.1-0.7,0.2-1.1,0.2c-0.4,0-0.7-0.1-1.1-0.2c-0.3-0.1-0.6-0.3-0.8-0.5c-0.2-0.2-0.4-0.5-0.5-0.8
				c-0.1-0.3-0.2-0.6-0.2-1c0-0.4,0.1-0.8,0.2-1.2c0.2-0.3,0.4-0.6,0.7-0.9c0.3-0.3,0.7-0.5,1.1-0.7c0.4-0.2,0.8-0.4,1.3-0.6
				c0.5-0.2,0.9-0.3,1.4-0.4l1.4-0.4v-0.6c0-0.5,0-0.8-0.1-1.1c-0.1-0.3-0.2-0.5-0.4-0.8c-0.2-0.2-0.4-0.3-0.6-0.4
				c-0.2-0.1-0.5-0.1-0.8-0.1c-0.3,0-0.6,0-0.8,0.1c-0.2,0.1-0.4,0.2-0.5,0.3c-0.1,0.1-0.2,0.3-0.2,0.5c0,0.2-0.1,0.4-0.1,0.6
				c0,0.2,0,0.3,0,0.5c0,0.2-0.1,0.3-0.2,0.4c-0.1,0.1-0.2,0.2-0.3,0.3c-0.2,0.1-0.3,0.1-0.5,0.1c-0.3,0-0.6-0.1-0.7-0.3
				c-0.2-0.2-0.3-0.5-0.3-0.8c0-0.3,0.1-0.6,0.3-0.9c0.2-0.3,0.5-0.5,0.9-0.7c0.4-0.2,0.8-0.4,1.3-0.5c0.5-0.1,1-0.2,1.5-0.2
				c0.7,0,1.2,0.1,1.7,0.2c0.4,0.1,0.8,0.3,1.1,0.5c0.3,0.2,0.5,0.5,0.6,0.8c0.1,0.3,0.2,0.7,0.2,1.1L115.8,40.6L115.8,40.6
				L115.8,40.6z M113.8,34.8c-0.4,0.1-0.9,0.3-1.4,0.5c-0.5,0.2-0.9,0.4-1.3,0.7c-0.4,0.2-0.7,0.6-1,0.9c-0.2,0.3-0.4,0.6-0.4,1
				c0,0.2,0,0.5,0.1,0.7s0.2,0.4,0.4,0.6c0.2,0.2,0.3,0.3,0.5,0.4c0.2,0.1,0.4,0.2,0.6,0.2c0.2,0,0.4,0,0.7-0.1
				c0.2-0.1,0.4-0.1,0.6-0.2c0.2-0.1,0.4-0.2,0.6-0.3c0.2-0.1,0.4-0.3,0.6-0.4L113.8,34.8L113.8,34.8L113.8,34.8z M119.6,25.5
				c0.2,0,0.3,0,0.4,0.1c0.2,0.1,0.3,0.1,0.4,0.2c0.1,0.1,0.2,0.2,0.2,0.3c0.1,0.2,0.1,0.5,0,0.8c-0.1,0.1-0.1,0.2-0.2,0.3
				c-0.1,0.1-0.2,0.2-0.4,0.2c-0.1,0.1-0.3,0.1-0.4,0.1c-0.1,0-0.3,0-0.4-0.1c-0.1-0.1-0.3-0.1-0.4-0.2c-0.1-0.1-0.2-0.2-0.2-0.3
				c-0.1-0.2-0.1-0.5,0-0.8c0.1-0.1,0.2-0.2,0.2-0.3c0.1-0.1,0.2-0.2,0.4-0.2C119.3,25.5,119.4,25.5,119.6,25.5z M118.6,31l1.4-0.6
				h0.6v10.2h-2V31z M123,30.6h2v1.8c0.6-0.7,1.2-1.2,1.9-1.5c0.7-0.3,1.3-0.5,2-0.5c0.3,0,0.7,0.1,1,0.2c0.3,0.2,0.6,0.4,0.8,0.6
				c0.2,0.3,0.4,0.6,0.6,1c0.1,0.4,0.2,0.8,0.2,1.2v7.2h-2v-6.8c0-0.7-0.2-1.2-0.4-1.5c-0.3-0.3-0.7-0.5-1.1-0.5
				c-0.2,0-0.4,0-0.7,0.1c-0.2,0.1-0.5,0.2-0.7,0.3c-0.3,0.1-0.5,0.3-0.7,0.5c-0.2,0.2-0.5,0.4-0.7,0.6v7.4h-2L123,30.6L123,30.6z
				 M133.8,30.6h2v1.9c0.2-0.3,0.6-0.6,0.9-0.8c0.3-0.2,0.6-0.5,1-0.7c0.3-0.2,0.7-0.3,1-0.5c0.3-0.1,0.7-0.2,1-0.2
				c0.3,0,0.6,0.1,0.9,0.2c0.3,0.1,0.6,0.2,0.8,0.4c0.2,0.2,0.5,0.4,0.7,0.7c0.2,0.2,0.3,0.5,0.4,0.8c0.2-0.3,0.4-0.6,0.7-0.8
				c0.3-0.2,0.6-0.5,1-0.7c0.4-0.2,0.7-0.3,1.1-0.5c0.4-0.1,0.8-0.2,1.2-0.2c0.4,0,0.7,0.1,1.1,0.2c0.3,0.2,0.6,0.4,0.9,0.7
				c0.2,0.3,0.5,0.6,0.6,1c0.2,0.4,0.2,0.8,0.2,1.2v7.1h-1.9v-6.8c0-0.3-0.1-0.5-0.2-0.8c-0.1-0.2-0.2-0.5-0.4-0.6
				c-0.2-0.2-0.4-0.3-0.6-0.5c-0.2-0.1-0.4-0.2-0.7-0.2c-0.3,0-0.6,0-0.8,0.1c-0.3,0.1-0.5,0.2-0.8,0.3c-0.3,0.1-0.5,0.3-0.7,0.5
				c-0.2,0.2-0.4,0.3-0.5,0.6v7.4h-2v-6.8c0-0.3-0.1-0.5-0.2-0.8c-0.1-0.2-0.2-0.5-0.4-0.6c-0.2-0.2-0.4-0.3-0.6-0.5
				c-0.2-0.1-0.5-0.2-0.7-0.2c-0.2,0-0.5,0-0.8,0.1c-0.3,0.1-0.5,0.2-0.8,0.3c-0.3,0.1-0.5,0.3-0.7,0.5c-0.2,0.2-0.4,0.3-0.6,0.6
				v7.4h-2L133.8,30.6L133.8,30.6z M155.9,40.9c-0.7,0-1.3-0.1-1.9-0.4c-0.6-0.2-1.1-0.6-1.6-1c-0.5-0.4-0.8-1-1.1-1.5
				c-0.3-0.6-0.4-1.2-0.4-1.9c0-0.8,0.1-1.5,0.3-2.2c0.2-0.7,0.6-1.3,1-1.8c0.4-0.5,1-0.9,1.6-1.2c0.6-0.3,1.3-0.4,2-0.4
				c0.6,0,1.3,0.1,1.8,0.3c0.6,0.2,1,0.6,1.4,0.9c0.4,0.4,0.7,0.8,0.9,1.4c0.2,0.5,0.3,1,0.3,1.6h-7.5c0,0.7,0.1,1.3,0.2,1.9
				c0.2,0.6,0.4,1.1,0.7,1.5c0.3,0.4,0.7,0.7,1.1,1c0.4,0.2,0.9,0.4,1.4,0.4c0.4,0,0.9-0.1,1.3-0.2c0.4-0.1,0.7-0.3,1.1-0.6
				c0.3-0.2,0.6-0.5,0.8-0.8c0.2-0.3,0.4-0.6,0.5-0.9l0.6,0.2c-0.2,0.5-0.4,1-0.7,1.4c-0.3,0.5-0.7,0.9-1.1,1.2
				c-0.4,0.3-0.9,0.6-1.4,0.8C157,40.7,156.5,40.9,155.9,40.9L155.9,40.9z M157.9,33.9c0-0.4-0.1-0.7-0.2-1
				c-0.1-0.3-0.3-0.6-0.6-0.9c-0.2-0.2-0.5-0.4-0.8-0.6c-0.3-0.1-0.7-0.2-1-0.2c-0.3,0-0.6,0.1-0.9,0.2c-0.3,0.1-0.5,0.3-0.7,0.6
				c-0.2,0.3-0.4,0.5-0.5,0.9c-0.2,0.3-0.2,0.7-0.2,1H157.9L157.9,33.9z M162.6,30.6h2v1.8c0.6-0.7,1.2-1.2,1.9-1.5
				c0.6-0.3,1.3-0.5,2-0.5c0.3,0,0.7,0.1,1,0.2c0.3,0.2,0.6,0.4,0.8,0.6c0.2,0.3,0.4,0.6,0.6,1c0.1,0.4,0.2,0.8,0.2,1.2v7.2h-2v-6.8
				c0-0.7-0.2-1.2-0.4-1.5c-0.3-0.3-0.7-0.5-1.1-0.5c-0.2,0-0.4,0-0.7,0.1c-0.2,0.1-0.5,0.2-0.7,0.3c-0.3,0.1-0.5,0.3-0.7,0.5
				c-0.2,0.2-0.5,0.4-0.7,0.6v7.4h-2V30.6z M178.7,39.4c-0.3,0.5-0.6,0.8-1.1,1.1c-0.4,0.3-1,0.4-1.6,0.4c-0.3,0-0.6-0.1-0.9-0.2
				c-0.2-0.1-0.5-0.3-0.6-0.5c-0.2-0.2-0.3-0.5-0.4-0.7c-0.1-0.3-0.1-0.6-0.1-1v-7.1h-1.7V31c0.6,0,1-0.1,1.4-0.3s0.6-0.5,0.9-0.8
				c0.2-0.3,0.4-0.7,0.6-1.2c0.1-0.5,0.2-1,0.3-1.4h0.6v3.4h2.3v0.8H176v7.1c0,0.3,0.1,0.6,0.3,0.8s0.5,0.3,0.8,0.3
				c0.2,0,0.4-0.1,0.6-0.2c0.2-0.1,0.3-0.2,0.5-0.4L178.7,39.4z"/>
		</g>
	</g>
</g>
</svg>
